[Header]			# Header keywords are followed by a single value
FileType htr		# single word string
DataType HTRS		# Hierarchical translations followed by rotations and Scale
FileVersion 1		# integer
NumSegments 20		# integer
NumFrames 5		# integer
DataFrameRate 60	# integer
EulerRotationOrder ZYX	# one word string
CalibrationUnits mm	# one word string
RotationUnits Degrees	# one word string
GlobalAxisofGravity Y	# character, X or Y or Z
BoneLengthAxis Y
ScaleFactor 1.000000
[SegmentNames&Hierarchy]
#CHILD	PARENT
LowerTorso	GLOBAL
UpperTorso	LowerTorso
LCollarBone	UpperTorso
RCollarBone	UpperTorso
LUpArm	LCollarBone
RUpArm	RCollarBone
LLowArm	LUpArm
RLowArm	RUpArm
LHand	LLowArm
RHand	RLowArm
LPelvis	LowerTorso
RPelvis	LowerTorso
LThigh	LPelvis
RThigh	RPelvis
LLowLeg	LThigh
RLowLeg	RThigh
LFoot	LLowLeg
RFoot	RLowLeg
Neck	UpperTorso
Head	Neck
[BasePosition]
#SegmentName Tx, Ty, Tz, Rx, Ry, Rz, BoneLength
LowerTorso	0.000000	0.000000	0.000000	0.000000	0.000000	0.000000	247.497849
UpperTorso	0.000000	247.497849	0.000000	-3.483188	-0.016176	-0.898562	303.935425
LCollarBone	0.000000	303.935425	0.000000	-2.778975	2.380151	-103.909637	160.814774
RCollarBone	0.000000	303.935425	0.000000	1.923138	-2.431442	97.423370	173.085861
LUpArm	0.000000	160.814774	0.000000	9.905276	-0.146364	3.830753	266.228302
RUpArm	0.000000	173.085861	0.000000	3.559436	0.163580	4.186032	250.544907
LLowArm	0.000000	266.228302	0.000000	0.604391	2.460426	18.478745	239.401855
RLowArm	0.000000	250.544907	0.000000	-4.677841	-1.676118	-16.763147	247.676224
LHand	0.000000	239.401855	0.000000	-2.922581	-1.504997	-10.879651	178.693573
RHand	0.000000	247.676224	0.000000	8.087741	0.221451	14.771751	171.097885
LPelvis	0.000000	0.000000	0.000000	25.628080	-1.004481	-103.107483	127.213554
RPelvis	0.000000	0.000000	0.000000	7.212610	1.026056	95.806335	154.731140
LThigh	0.000000	127.213554	0.000000	-8.629928	-24.934669	-78.343170	392.414856
RThigh	0.000000	154.731140	0.000000	-0.087953	7.045837	82.361420	403.151337
LLowLeg	0.000000	392.414856	0.000000	-11.135172	-0.396179	6.207254	411.539612
RLowLeg	0.000000	403.151337	0.000000	-15.879393	-0.038285	-2.567663	396.965240
LFoot	0.000000	411.539612	0.000000	86.993790	-9.419292	-7.421347	182.020935
RFoot	0.000000	396.965240	0.000000	85.685738	19.489246	8.810133	181.714371
Neck	0.000000	303.935425	0.000000	26.917892	0.010495	-0.245093	141.112030
Head	0.000000	141.112030	0.000000	-34.290924	-1.751020	-3.852423	164.098740
#Beginning of Data. Separated by tabs.
[LowerTorso]
#Fr	Tx	Ty	Tz	Rx	Ry	Rz	SF
562	246.766449	740.641479	251.238754	-9.856772	-38.276089	16.300474	1.000000
563	238.952347	741.978943	266.021729	-10.401770	-39.577656	16.501736	1.000000
564	230.427155	744.750732	279.122894	-10.780243	-40.783825	16.573494	1.000000
565	221.222031	748.687866	290.742401	-10.984658	-41.926289	16.465889	1.000000
566	211.301834	753.655701	301.147369	-11.052722	-43.001431	16.192642	1.000000
[UpperTorso]
#Fr	Tx	Ty	Tz	Rx	Ry	Rz	SF
562	0.000000	0.000000	0.000000	22.359478	6.434215	-3.863053	1.000000
563	0.000000	0.000000	0.000000	22.509918	5.655066	-3.576126	1.000000
564	0.000000	0.000000	0.000000	22.598036	4.484933	-3.510389	1.000000
565	0.000000	0.000000	0.000000	22.634274	2.981568	-3.559411	1.000000
566	0.000000	0.000000	0.000000	22.591099	1.262671	-3.630365	1.000000
[LCollarBone]
#Fr	Tx	Ty	Tz	Rx	Ry	Rz	SF
562	0.000000	0.000000	0.000000	9.312081	1.232155	5.180927	1.000000
563	0.000000	0.000000	0.000000	10.593880	1.572510	4.561288	1.000000
564	0.000000	0.000000	0.000000	11.657080	1.878398	4.044822	1.000000
565	0.000000	0.000000	0.000000	12.538329	2.105000	3.776571	1.000000
566	0.000000	0.000000	0.000000	13.218644	2.210359	3.846963	1.000000
[RCollarBone]
#Fr	Tx	Ty	Tz	Rx	Ry	Rz	SF
562	0.000000	0.000000	0.000000	11.978376	-1.537003	-0.425351	1.000000
563	0.000000	0.000000	0.000000	11.958853	-1.464013	-0.827144	1.000000
564	0.000000	0.000000	0.000000	11.964173	-1.342367	-1.512712	1.000000
565	0.000000	0.000000	0.000000	11.995738	-1.166036	-2.522510	1.000000
566	0.000000	0.000000	0.000000	11.946787	-0.934695	-3.834587	1.000000
[LUpArm]
#Fr	Tx	Ty	Tz	Rx	Ry	Rz	SF
562	0.000000	0.000000	0.000000	-7.492559	-13.202807	-19.791016	1.000000
563	0.000000	0.000000	0.000000	-6.593823	-13.381207	-21.584053	1.000000
564	0.000000	0.000000	0.000000	-5.688557	-12.803082	-22.601782	1.000000
565	0.000000	0.000000	0.000000	-4.831538	-11.767031	-22.955484	1.000000
566	0.000000	0.000000	0.000000	-3.989600	-10.572995	-22.794500	1.000000
[RUpArm]
#Fr	Tx	Ty	Tz	Rx	Ry	Rz	SF
562	0.000000	0.000000	0.000000	51.281796	-0.202821	8.023815	1.000000
563	0.000000	0.000000	0.000000	50.802441	0.499801	5.531386	1.000000
564	0.000000	0.000000	0.000000	50.646519	1.991214	2.818420	1.000000
565	0.000000	0.000000	0.000000	50.658695	4.083380	0.239345	1.000000
566	0.000000	0.000000	0.000000	50.801350	6.508117	-1.976172	1.000000
[LLowArm]
#Fr	Tx	Ty	Tz	Rx	Ry	Rz	SF
562	0.000000	0.000000	0.000000	-9.614360	1.443255	-0.326108	1.000000
563	0.000000	0.000000	0.000000	-8.644044	1.300412	-0.282276	1.000000
564	0.000000	0.000000	0.000000	-7.957768	1.198930	-0.252738	1.000000
565	0.000000	0.000000	0.000000	-7.333494	1.106305	-0.226923	1.000000
566	0.000000	0.000000	0.000000	-6.931973	1.046580	-0.210853	1.000000
[RLowArm]
#Fr	Tx	Ty	Tz	Rx	Ry	Rz	SF
562	0.000000	0.000000	0.000000	118.339012	4.557278	7.372851	1.000000
563	0.000000	0.000000	0.000000	117.883736	4.575571	7.337211	1.000000
564	0.000000	0.000000	0.000000	117.416939	4.594031	7.300519	1.000000
565	0.000000	0.000000	0.000000	116.956909	4.611930	7.264216	1.000000
566	0.000000	0.000000	0.000000	116.498238	4.629488	7.227874	1.000000
[LHand]
#Fr	Tx	Ty	Tz	Rx	Ry	Rz	SF
562	0.000000	0.000000	0.000000	22.819901	-27.880106	-6.966864	1.000000
563	0.000000	0.000000	0.000000	25.035673	-28.831598	-9.326649	1.000000
564	0.000000	0.000000	0.000000	27.440916	-29.690063	-11.135801	1.000000
565	0.000000	0.000000	0.000000	29.419018	-30.221197	-12.177953	1.000000
566	0.000000	0.000000	0.000000	30.535496	-30.265135	-12.391360	1.000000
[RHand]
#Fr	Tx	Ty	Tz	Rx	Ry	Rz	SF
562	0.000000	0.000000	0.000000	9.804107	-21.364134	-17.165045	1.000000
563	0.000000	0.000000	0.000000	11.739533	-22.271334	-17.857174	1.000000
564	0.000000	0.000000	0.000000	14.167991	-22.884169	-19.116924	1.000000
565	0.000000	0.000000	0.000000	16.760246	-23.031458	-20.669998	1.000000
566	0.000000	0.000000	0.000000	19.058508	-22.767815	-22.261036	1.000000
[LPelvis]
#Fr	Tx	Ty	Tz	Rx	Ry	Rz	SF
562	0.000000	0.000000	0.000000	0.000000	0.000000	0.000000	1.000000
563	0.000000	0.000000	0.000000	0.000000	0.000000	0.000000	1.000000
564	0.000000	0.000000	0.000000	0.000000	0.000000	0.000000	1.000000
565	0.000000	0.000000	0.000000	0.000000	0.000000	0.000000	1.000000
566	0.000000	0.000000	0.000000	0.000000	0.000000	0.000000	1.000000
[RPelvis]
#Fr	Tx	Ty	Tz	Rx	Ry	Rz	SF
562	0.000000	0.000000	0.000000	0.000000	0.000000	0.000000	1.000000
563	0.000000	0.000000	0.000000	0.000000	0.000000	0.000000	1.000000
564	0.000000	0.000000	0.000000	0.000000	0.000000	0.000000	1.000000
565	0.000000	0.000000	0.000000	0.000000	0.000000	0.000000	1.000000
566	0.000000	0.000000	0.000000	0.000000	0.000000	0.000000	1.000000
[LThigh]
#Fr	Tx	Ty	Tz	Rx	Ry	Rz	SF
562	0.000000	0.000000	0.000000	42.432671	4.338482	-7.346359	1.000000
563	0.000000	0.000000	0.000000	41.001724	3.518988	-7.561518	1.000000
564	0.000000	0.000000	0.000000	39.445370	2.484829	-7.605008	1.000000
565	0.000000	0.000000	0.000000	37.770752	1.405071	-7.432602	1.000000
566	0.000000	0.000000	0.000000	35.968727	0.402549	-7.067517	1.000000
[RThigh]
#Fr	Tx	Ty	Tz	Rx	Ry	Rz	SF
562	0.000000	0.000000	0.000000	17.374695	0.345050	-0.489917	1.000000
563	0.000000	0.000000	0.000000	21.584684	1.446288	0.605392	1.000000
564	0.000000	0.000000	0.000000	25.753931	2.625080	2.029276	1.000000
565	0.000000	0.000000	0.000000	29.718037	3.857654	3.727835	1.000000
566	0.000000	0.000000	0.000000	33.342098	5.140463	5.557657	1.000000
[LLowLeg]
#Fr	Tx	Ty	Tz	Rx	Ry	Rz	SF
562	0.000000	0.000000	0.000000	-53.232353	4.180859	-0.877100	1.000000
563	0.000000	0.000000	0.000000	-53.839390	4.220133	-0.908720	1.000000
564	0.000000	0.000000	0.000000	-53.907124	4.224494	-0.912274	1.000000
565	0.000000	0.000000	0.000000	-53.555363	4.201799	-0.893873	1.000000
566	0.000000	0.000000	0.000000	-52.845444	4.155651	-0.857163	1.000000
[RLowLeg]
#Fr	Tx	Ty	Tz	Rx	Ry	Rz	SF
562	0.000000	0.000000	0.000000	-83.042320	-3.860500	1.924938	1.000000
563	0.000000	0.000000	0.000000	-85.046371	-3.901141	2.031158	1.000000
564	0.000000	0.000000	0.000000	-85.994095	-3.919063	2.081870	1.000000
565	0.000000	0.000000	0.000000	-85.873024	-3.916820	2.075375	1.000000
566	0.000000	0.000000	0.000000	-84.718315	-3.894742	2.013674	1.000000
[LFoot]
#Fr	Tx	Ty	Tz	Rx	Ry	Rz	SF
562	0.000000	0.000000	0.000000	8.703438	-0.790269	1.580170	1.000000
563	0.000000	0.000000	0.000000	9.700540	-0.820192	2.067858	1.000000
564	0.000000	0.000000	0.000000	10.488676	-0.934338	2.205754	1.000000
565	0.000000	0.000000	0.000000	11.148659	-1.045336	2.280993	1.000000
566	0.000000	0.000000	0.000000	11.603303	-1.084633	2.468322	1.000000
[RFoot]
#Fr	Tx	Ty	Tz	Rx	Ry	Rz	SF
562	0.000000	0.000000	0.000000	-7.846037	-3.953512	-2.494408	1.000000
563	0.000000	0.000000	0.000000	-4.761692	-2.082500	-1.159060	1.000000
564	0.000000	0.000000	0.000000	-2.083301	-0.582065	0.091354	1.000000
565	0.000000	0.000000	0.000000	0.368812	0.398613	0.651770	1.000000
566	0.000000	0.000000	0.000000	2.664967	0.974445	0.430168	1.000000
[Neck]
#Fr	Tx	Ty	Tz	Rx	Ry	Rz	SF
562	0.000000	0.000000	0.000000	-4.195163	-10.032677	8.888862	1.000000
563	0.000000	0.000000	0.000000	-3.827667	-9.729841	9.049778	1.000000
564	0.000000	0.000000	0.000000	-3.445548	-9.410099	9.231433	1.000000
565	0.000000	0.000000	0.000000	-3.074555	-9.091687	9.405291	1.000000
566	0.000000	0.000000	0.000000	-2.721741	-8.784323	9.550853	1.000000
[Head]
#Fr	Tx	Ty	Tz	Rx	Ry	Rz	SF
562	0.000000	0.000000	0.000000	-6.724393	-26.824335	4.543643	1.000000
563	0.000000	0.000000	0.000000	-6.217377	-26.465185	5.021100	1.000000
564	0.000000	0.000000	0.000000	-5.674672	-26.090300	5.616193	1.000000
565	0.000000	0.000000	0.000000	-5.154273	-25.712658	6.203352	1.000000
566	0.000000	0.000000	0.000000	-4.673720	-25.314407	6.660987	1.000000
[EndOfFile]
